<?xml version="1.0" standalone="no"?>
<!DOCTYPE svg PUBLIC "-//W3C//DTD SVG 20010904//EN"
 "http://www.w3.org/TR/2001/REC-SVG-20010904/DTD/svg10.dtd">
<svg version="1.0" xmlns="http://www.w3.org/2000/svg"
 width="920.000000pt" height="920.000000pt" viewBox="0 0 920.000000 920.000000"
 preserveAspectRatio="xMidYMid meet">

<g transform="translate(0.000000,920.000000) scale(0.100000,-0.100000)"
fill="#FCFCFC" stroke="none">
<path d="M1755 8036 c-145 -28 -265 -89 -372 -189 -269 -252 -303 -646 -82
-974 17 -26 528 -545 1135 -1153 607 -608 1104 -1112 1104 -1120 0 -8 -501
-516 -1113 -1130 -1066 -1068 -1115 -1119 -1160 -1200 -26 -47 -60 -123 -74
-170 -24 -74 -27 -102 -28 -215 0 -155 11 -207 72 -335 38 -79 59 -108 132
-180 72 -72 102 -95 181 -133 52 -26 122 -54 155 -62 207 -52 432 -8 609 119
34 25 556 540 1161 1145 722 723 1107 1101 1120 1101 13 0 404 -383 1135
-1113 722 -721 1135 -1127 1173 -1151 129 -83 252 -120 407 -120 126 0 213 20
325 75 136 66 253 182 324 318 65 126 76 176 75 341 0 132 -2 152 -27 225 -61
175 -14 123 -1229 1340 -881 883 -1118 1126 -1118 1145 0 20 235 260 1109
1135 804 804 1120 1128 1150 1174 136 212 159 493 58 711 -52 113 -149 227
-256 300 -126 85 -253 123 -411 124 -154 0 -278 -36 -407 -120 -38 -24 -451
-430 -1173 -1151 -731 -730 -1122 -1113 -1135 -1113 -13 0 -396 376 -1115
1096 -602 602 -1121 1116 -1152 1140 -67 52 -179 107 -263 129 -86 22 -226 27
-310 11z m240 -291 c32 -9 81 -28 109 -43 36 -20 348 -325 1168 -1144 872
-872 1129 -1123 1170 -1145 48 -25 63 -28 153 -28 85 0 108 4 150 24 40 19
270 244 1175 1146 709 708 1142 1132 1170 1148 183 103 412 64 555 -95 123
-137 145 -326 58 -499 -32 -65 -111 -146 -1154 -1190 -1261 -1260 -1174 -1162
-1174 -1319 0 -156 -87 -58 1178 -1324 1026 -1025 1128 -1131 1156 -1188 64
-135 64 -273 0 -400 -88 -173 -282 -272 -471 -238 -155 27 -82 -39 -1318 1195
-751 749 -1139 1130 -1166 1143 -23 12 -70 26 -105 33 -54 10 -74 9 -129 -5
-36 -9 -83 -29 -105 -43 -22 -14 -541 -527 -1153 -1139 -1014 -1015 -1118
-1116 -1175 -1143 -337 -161 -696 104 -633 466 29 167 -44 86 1191 1323 904
905 1118 1125 1141 1170 26 49 29 65 29 150 0 85 -3 101 -29 150 -23 45 -239
267 -1145 1175 -1223 1226 -1152 1148 -1188 1307 -29 129 7 276 93 376 107
125 284 179 449 137z"/>
</g>
</svg>
