<?xml version="1.0" standalone="no"?>
<!DOCTYPE svg PUBLIC "-//W3C//DTD SVG 20010904//EN"
 "http://www.w3.org/TR/2001/REC-SVG-20010904/DTD/svg10.dtd">
<svg version="1.0" xmlns="http://www.w3.org/2000/svg"
 width="69.000000pt" height="59.000000pt" viewBox="0 0 69.000000 59.000000"
 preserveAspectRatio="xMidYMid meet">

<g transform="translate(0.000000,59.000000) scale(0.100000,-0.100000)"
fill="#000000" stroke="none">
<path d="M105 571 c-48 -22 -69 -44 -90 -94 -40 -97 -14 -144 178 -328 l153
-147 159 157 c87 85 164 170 172 188 18 44 16 90 -6 139 -49 107 -193 137
-280 58 -45 -40 -52 -41 -77 -13 -26 30 -92 59 -134 59 -19 0 -53 -9 -75 -19z"/>
</g>
</svg>
