<?xml version="1.0" standalone="no"?>
<!DOCTYPE svg PUBLIC "-//W3C//DTD SVG 20010904//EN"
 "http://www.w3.org/TR/2001/REC-SVG-20010904/DTD/svg10.dtd">
<svg version="1.0" xmlns="http://www.w3.org/2000/svg"
 width="920.000000pt" height="919.000000pt" viewBox="0 0 920.000000 919.000000"
 preserveAspectRatio="xMidYMid meet">

<g transform="translate(0.000000,919.000000) scale(0.100000,-0.100000)"
fill="#FCFCFC" stroke="none">
<path d="M1810 7603 c-267 -294 -485 -541 -485 -549 0 -7 504 -567 1120 -1244
616 -678 1126 -1240 1133 -1250 12 -17 -89 -131 -1120 -1264 -623 -686 -1133
-1253 -1133 -1260 0 -16 962 -1079 980 -1084 7 -2 522 558 1145 1243 622 685
1136 1245 1140 1245 5 0 519 -560 1141 -1245 623 -685 1138 -1244 1144 -1243
19 5 980 1067 980 1083 0 8 -504 569 -1120 1246 -616 677 -1126 1239 -1133
1248 -11 16 107 150 1123 1267 624 687 1134 1254 1133 1261 -4 16 -968 1077
-982 1081 -7 1 -521 -558 -1144 -1243 -623 -685 -1137 -1245 -1142 -1245 -5 0
-518 560 -1141 1245 -622 685 -1137 1245 -1143 1244 -6 0 -229 -241 -496 -536z"/>
</g>
</svg>
